PathFileType	4	(X/Y/Z)	5_coords_data.trc
DataRate	CameraRate	NumFrames	NumMarkers	Units	OrigDataRate	OrigDataStartFrame	OrigNumFrames
30.0	30.0	4	21	m	30.0	1	63
Frame#	Time	THUMB_TIP	THUMB_IP	THUMB_MCP	THUMB_CMC	INDEX_TIP	INDEX_DIP	INDEX_PIP	INDEX_MCP	MIDDLE_TIP	MIDDLE_DIP	MIDDLE_PIP	MIDDLE_MCP	RING_TIP	RING_DIP	RING_PIP	RING_MCP	PINKY_TIP	PINKY_DIP	PINKY_PIP	PINKY_MCP	WRIST
X1	Y1	Z1	X2	Y2	Z2	X3	Y3	Z3	X4	Y4	Z4	X5	Y5	Z5	X6	Y6	Z6	X7	Y7	Z7	X8	Y8	Z8	X9	Y9	Z9	X10	Y10	Z10	X11	Y11	Z11	X12	Y12	Z12	X13	Y13	Z13	X14	Y14	Z14	X15	Y15	Z15	X16	Y16	Z16	X17	Y17	Z17	X18	Y18	Z18	X19	Y19	Z19	X20	Y20	Z20	X21	Y21	Z21
0	-2.749317978547796e-18	0.4833033410760996	-0.02131021479472517	-0.17283706585100087	0.4877575782030885	-0.022055290844904207	-0.1503069829994887	0.475884128164224	-0.028209085377196796	-0.12220054250929291	0.4743095870268106	-0.02733353326676391	-0.07762875514656188	0.4957286103050692	-0.0237776969310457	-0.09641254433400244	0.5129124595246096	-0.01997189160085122	-0.10068234196255159	0.5296223715629617	-0.004925641573005679	-0.11192507440489405	0.4955519935495146	0.02017399674953002	-0.11670561748060462	0.4982091034637257	-0.015196051822490286	-0.08450173194770094	0.5162756630469417	-0.014195631671141906	-0.08527541427713714	0.536190938739823	0.005290065410778033	-0.0938252068657433	0.5006753199272849	0.03202521236582345	-0.0982996519324087	0.5031027915429549	-0.005737487706304112	-0.06887735012163546	0.5209605990647146	-0.0035843573575643495	-0.07008678809735876	0.5389921865808351	0.01299135366910742	-0.07459096777947175	0.5071464194130655	0.03746756085645109	-0.07922596823453448	0.5032516157832178	-0.007641874909599444	-0.052811554386764964	0.5202952788613088	-0.009213853084165557	-0.05260556045674522	0.5352922885656599	0.005233499744453418	-0.05528431299720038	0.5112508696915257	0.032060683513882915	-0.057072004391061554	0.4622830810018608	-0.023011742144276925	-0.05198982011943097
1	0.03333333333333339	0.484662385408381	-0.020898639909011307	-0.17251877892781525	0.48899248316575317	-0.021585062121264764	-0.14996264721251162	0.47692052641884086	-0.027747183981893575	-0.12194272368521702	0.47479522541732255	-0.02738387037087775	-0.07738667921453943	0.4965595083229304	-0.023026094415002363	-0.09627362571171891	0.5140242610747867	-0.020106451829705718	-0.10007600634635505	0.5307563034024431	-0.005000241648498882	-0.11120484305585528	0.4968349304495464	0.020309235617277377	-0.11593843698897241	0.4992383216874068	-0.01632735662944851	-0.08390364668601515	0.5172614243366261	-0.014714408758259134	-0.08465608941508496	0.5371041362933808	0.004762908059704474	-0.09339167535845104	0.5017144717615146	0.031667575653246405	-0.0978479548607934	0.5036455078439686	-0.0058911234605967255	-0.06872889748410049	0.5215525310414814	-0.00403844270433984	-0.06968078729869805	0.5396285760004376	0.012442523141217854	-0.07435136996463552	0.5078875793478735	0.037079462998739876	-0.07885149884709788	0.5041611076889058	-0.008105592367759429	-0.05237333373445767	0.5212056804547062	-0.009677481601564675	-0.052265151166649634	0.5361162482825189	0.004824713020095794	-0.05512405606322891	0.5118993893590744	0.031498516020610934	-0.05683736525064828	0.4622830810018609	-0.023011742144276925	-0.051989820119430985
2	0.06666666666666676	0.48570673334875747	-0.020568826019953246	-0.17226218360328674	0.4899321744839942	-0.021212273385514124	-0.14968494677721783	0.4776964734474072	-0.027382063856514094	-0.12173783054517667	0.47515291121304437	-0.027413032417242245	-0.0772022343090402	0.4972052127352814	-0.022428553006431318	-0.09617686624901921	0.5148507545302867	-0.020217466524499628	-0.09960410293914361	0.53159860286674	-0.005060127899564337	-0.11063925109891953	0.4977971014079027	0.020416029274930247	-0.11533605945658784	0.5000119436772594	-0.017183202900326378	-0.08344918042671462	0.5179885941288709	-0.015106576619261847	-0.08417558377841661	0.5377782425692765	0.00436417563795688	-0.09304514809371221	0.5024908775689715	0.03140578635813396	-0.09748373818445555	0.5040525435172686	-0.005985617245533259	-0.06861972826418897	0.521992633565526	-0.004374353115174423	-0.06936605055558356	0.5401039897455796	0.012032918841119233	-0.07415772909983656	0.5084412455912013	0.03678951154317067	-0.07855119975515248	0.5048343562089829	-0.00844786257664476	-0.05203405529423667	0.5218788699766024	-0.010023788261307676	-0.05200229585706975	0.5367273545630272	0.004515925175029301	-0.05499081684175511	0.5123798120086271	0.03107429397723871	-0.05664419796161757	0.462283081001861	-0.023011742144276925	-0.051989820119430985
3	0.10000000000000014	0.4864808920008775	-0.020312849693354895	-0.17206714084354527	0.49061904186270944	-0.020927215952536993	-0.1494729320762394	0.47825051923665574	-0.027104324244449085	-0.12158596413064185	0.4754050100459072	-0.027425351797069952	-0.07706978708503487	0.4976812941835044	-0.02198762682564992	-0.09610530459657177	0.5154359159903926	-0.020300586789234853	-0.09925606647426104	0.5321938600127764	-0.00510004732579894	-0.11021620995704379	0.49848479296299963	0.020503371221330058	-0.11488524104862986	0.500560261971516	-0.017784941051471326	-0.08312309457192976	0.5184975789628417	-0.015383573020911867	-0.08382029664773606	0.5382515848834656	0.004082911071113804	-0.092778242683679	0.5030438796799533	0.031230985500343533	-0.09719949477868418	0.5043437790278898	-0.006033130745320747	-0.06854187109707717	0.5223052654770609	-0.004606123073940482	-0.0691323400988601	0.5404435282396158	0.011747398913708573	-0.0740052982924004	0.5088350365372469	0.03658759818766233	-0.07831674657940953	0.505303956623868	-0.008684356254790804	-0.05178234657594988	0.5223478269796062	-0.010267356330187716	-0.05180671988251752	0.5371548856338177	0.004296620851127253	-0.05488139086863458	0.5127162146418828	0.030774031633505117	-0.05648810472280329	0.4622830810018608	-0.023011742144276925	-0.051989820119430985
